{"title":"Snapper Hero Snapchat Session 9 (03/29/2015) (Unedited)","uid":11783324,"size":51587120,"categoryP":"video","categoryS":"handheld","magnet":"?xt=urn:btih:e453d35cd1eb3f3e4de12aa9fd73ce6670c69ad7&amp;dn=Snapper+Hero+Snapchat+Session+9+%2803%2F29%2F2015%29+%28Unedited%29&amp;tr=udp%3A%2F%2Ftracker.openbittorrent.com%3A80&amp;tr=udp%3A%2F%2Fopen.demonii.com%3A1337&amp;tr=udp%3A%2F%2Ftracker.coppersurfer.tk%3A6969&amp;tr=udp%3A%2F%2Fexodus.desync.com%3A6969","seeders":0,"leechers":2,"uploader":"geiszla","files":37,"time":1427673123,"description":"Episode 9 from Snapper Hero (03/29/2015)\n\nTech Specs:\nGeneral\nComplete name                  : C:[...]snapperhero-29-03-2015-23_18_18.mov\nFormat                         : MPEG-4\nFormat profile                 : Base Media / Version 2\nCodec ID                       : mp42\nFile size                      : 1.23 MiB\nDuration                       : 3s 167ms\nOverall bit rate               : 3 270 Kbps\nEncoded date                   : UTC 2015-03-29 20:07:10\nTagged date                    : UTC 2015-03-29 20:07:10\n\nVideo\nID                             : 2\nFormat                         : AVC\nFormat/Info                    : Advanced Video Codec\nFormat profile                 : &lt;a class=&quot;__cf_email__&quot; href=&quot;/cdn-cgi/l/email-protection&quot; data-cfemail=&quot;6921000e0129255a4759&quot;&gt;[email&amp;#160;protected]&lt;/a&gt;&lt;script cf-hash='f9e31' type=&quot;text/javascript&quot;&gt;\n/* &lt;![CDATA[ */!function(){try{var t=&quot;currentScript&quot;in document?document.currentScript:function(){for(var t=document.getElementsByTagName(&quot;script&quot;),e=t.length;e--;)if(t[e].getAttribute(&quot;cf-hash&quot;))return t[e]}();if(t&amp;&amp;t.previousSibling){var e,r,n,i,c=t.previousSibling,a=c.getAttribute(&quot;data-cfemail&quot;);if(a){for(e=&quot;&quot;,r=parseInt(a.substr(0,2),16),n=2;a.length-n;n+=2)i=parseInt(a.substr(n,2),16)^r,e+=String.fromCharCode(i);e=document.createTextNode(e),c.parentNode.replaceChild(e,c)}}}catch(u){}}();/* ]]&gt; */&lt;/script&gt;\nFormat settings, CABAC         : Yes\nFormat settings, ReFrames      : 2 frames\nCodec ID                       : avc1\nCodec ID/Info                  : Advanced Video Coding\nDuration                       : 3s 167ms\nBit rate                       : 3 017 Kbps\nWidth                          : 376 pixels\nHeight                         : 668 pixels\nDisplay aspect ratio           : 0.563\nFrame rate mode                : Constant\nFrame rate                     : 30.000 fps\nColor space                    : YUV\nChroma subsampling             : 4:2:0\nBit depth                      : 8 bits\nScan type                      : Progressive\nBits/(Pixel*Frame)             : 0.400\nStream size                    : 1.14 MiB (92%)\nTitle                          : Core Media Video\nEncoded date                   : UTC 2015-03-29 20:07:10\nTagged date                    : UTC 2015-03-29 20:07:10\nColor primaries                : BT.709\nTransfer characteristics       : BT.709\nMatrix coefficients            : BT.601\nColor range                    : Limited\n\nAudio\nID                             : 1\nFormat                         : AAC\nFormat/Info                    : Advanced Audio Codec\nFormat profile                 : LC\nCodec ID                       : 40\nDuration                       : 3s 163ms\nSource duration                : 3s 228ms\nBit rate mode                  : Constant\nBit rate                       : 242 Kbps\nNominal bit rate               : 256 Kbps\nChannel(s)                     : 2 channels\nChannel positions              : Front: L R\nSampling rate                  : 44.1 KHz\nCompression mode               : Lossy\nStream size                    : 93.5 KiB (7%)\nSource stream size             : 95.5 KiB (8%)\nTitle                          : Core Media Audio\nEncoded date                   : UTC 2015-03-29 20:07:10\nTagged date                    : UTC 2015-03-29 20:07:10\n\n\nNote: I just uploaded this torrent for those who are not able to watch it on snapchat. Please do it, if you can!","torrent":{"xt":"urn:btih:e453d35cd1eb3f3e4de12aa9fd73ce6670c69ad7","amp;dn":"Snapper+Hero+Snapchat+Session+9+%2803%2F29%2F2015%29+%28Unedited%29","amp;tr":["udp%3A%2F%2Ftracker.openbittorrent.com%3A80","udp%3A%2F%2Fopen.demonii.com%3A1337","udp%3A%2F%2Ftracker.coppersurfer.tk%3A6969","udp%3A%2F%2Fexodus.desync.com%3A6969"],"infoHash":"e453d35cd1eb3f3e4de12aa9fd73ce6670c69ad7","infoHashBuffer":{"type":"Buffer","data":[228,83,211,92,209,235,63,62,77,225,42,169,253,115,206,102,112,198,154,215]},"announce":[],"urlList":[]}}